<?xml version="1.0" encoding="UTF-8" standalone="no"?>
<svg
   xmlns:dc="http://purl.org/dc/elements/1.1/"
   xmlns:cc="http://creativecommons.org/ns#"
   xmlns:rdf="http://www.w3.org/1999/02/22-rdf-syntax-ns#"
   xmlns:svg="http://www.w3.org/2000/svg"
   xmlns="http://www.w3.org/2000/svg"
   xmlns:sodipodi="http://sodipodi.sourceforge.net/DTD/sodipodi-0.dtd"
   xmlns:inkscape="http://www.inkscape.org/namespaces/inkscape"
   version="1.1"
   x="0px"
   y="0px"
   viewBox="0 0 100 125"
   style="enable-background:new 0 0 100 100;"
   xml:space="preserve"
   id="svg4623"
   sodipodi:docname="data_map.svg"
   inkscape:version="0.92.1 r"><metadata
     id="metadata4629"><rdf:RDF><cc:Work
         rdf:about=""><dc:format>image/svg+xml</dc:format><dc:type
           rdf:resource="http://purl.org/dc/dcmitype/StillImage" /><dc:title></dc:title></cc:Work></rdf:RDF></metadata><defs
     id="defs4627" /><sodipodi:namedview
     pagecolor="#ffffff"
     bordercolor="#666666"
     borderopacity="1"
     objecttolerance="10"
     gridtolerance="10"
     guidetolerance="10"
     inkscape:pageopacity="0"
     inkscape:pageshadow="2"
     inkscape:window-width="1276"
     inkscape:window-height="774"
     id="namedview4625"
     showgrid="false"
     inkscape:zoom="1.5584633"
     inkscape:cx="-69.256231"
     inkscape:cy="55.525549"
     inkscape:window-x="0"
     inkscape:window-y="24"
     inkscape:window-maximized="0"
     inkscape:current-layer="svg4623" /><g
     id="g4617"
     style="fill:#18c953;fill-opacity:1"
     transform="matrix(1.0998134,0,0,1.0998134,-5.2631324,-5.2631324)"><circle
       cx="37.5"
       cy="12.5"
       r="7.5"
       id="circle4585"
       style="fill:#18c953;fill-opacity:1" /><circle
       cx="62.5"
       cy="12.5"
       r="7.5"
       id="circle4587"
       style="fill:#18c953;fill-opacity:1" /><circle
       cx="12.5"
       cy="37.5"
       r="7.5"
       id="circle4589"
       style="fill:#18c953;fill-opacity:1" /><path
       d="m 37.5,30 c -1.9,0 -3.6,0.7 -4.9,1.9 L 18.2,17.5 17.8,17.9 C 19.2,16.5 20,14.7 20,12.6 20,8.4 16.6,5 12.5,5 8.4,5 5,8.4 5,12.5 c 0,4.1 3.4,7.5 7.5,7.5 2.1,0 3.9,-0.8 5.3,-2.2 l -0.4,0.4 14.4,14.4 c -1.2,1.3 -1.9,3 -1.9,4.9 0,4.1 3.4,7.5 7.5,7.5 4.1,0 7.5,-3.4 7.5,-7.5 0,-4.1 -3.3,-7.5 -7.4,-7.5 z M 12.5,19 C 8.9,19 6,16.1 6,12.5 6,8.9 8.9,6 12.5,6 16.1,6 19,8.9 19,12.5 19,16.1 16.1,19 12.5,19 Z m 25,25 C 33.9,44 31,41.1 31,37.5 31,33.9 33.9,31 37.5,31 c 3.6,0 6.5,2.9 6.5,6.5 0,3.6 -2.9,6.5 -6.5,6.5 z"
       id="path4591"
       style="fill:#18c953;fill-opacity:1"
       inkscape:connector-curvature="0" /><path
       d="M 87.5,30 H 88 V 20 H 87.5 87 v 10 h 0.5 C 83.4,30 80,33.4 80,37.5 80,41.6 83.4,45 87.5,45 91.6,45 95,41.6 95,37.5 95,33.4 91.6,30 87.5,30 Z m 0,14 C 83.9,44 81,41.1 81,37.5 81,33.9 83.9,31 87.5,31 c 3.6,0 6.5,2.9 6.5,6.5 0,3.6 -2.9,6.5 -6.5,6.5 z"
       id="path4593"
       style="fill:#18c953;fill-opacity:1"
       inkscape:connector-curvature="0" /><circle
       cx="37.5"
       cy="62.5"
       r="7.5"
       id="circle4595"
       style="fill:#18c953;fill-opacity:1" /><path
       d="M 62.5,55 C 58.4,55 55,58.4 55,62.5 55,66.6 58.4,70 62.5,70 66.6,70 70,66.6 70,62.5 70,58.3 66.6,55 62.5,55 Z m 0,14 C 58.9,69 56,66.1 56,62.5 56,58.9 58.9,56 62.5,56 c 3.6,0 6.5,2.9 6.5,6.5 0,3.6 -2.9,6.5 -6.5,6.5 z"
       id="path4597"
       style="fill:#18c953;fill-opacity:1"
       inkscape:connector-curvature="0" /><circle
       cx="87.5"
       cy="62.5"
       r="7.5"
       id="circle4599"
       style="fill:#18c953;fill-opacity:1" /><circle
       cx="12.5"
       cy="87.5"
       r="7.5"
       id="circle4601"
       style="fill:#18c953;fill-opacity:1" /><path
       d="m 37.5,80 c -1.9,0 -3.7,0.7 -5,1.9 L 32.6,81.8 18.1,67.4 v 0 c 1.2,-1.3 1.9,-3.1 1.9,-5 0,-1.9 -0.7,-3.7 -1.9,-5 l 0.1,0.1 14.4,-14.4 -0.7,-0.7 -14.5,14.4 0.1,0.1 C 16.2,55.7 14.4,55 12.5,55 8.4,55 5,58.3 5,62.5 c 0,4.1 3.4,7.5 7.5,7.5 1.9,0 3.7,-0.7 5,-1.9 l -0.1,0.1 14.4,14.4 0.1,-0.1 c -1.2,1.3 -1.9,3.1 -1.9,5 0,4.1 3.4,7.5 7.5,7.5 C 41.6,95 45,91.6 45,87.5 45,83.4 41.6,80 37.5,80 Z M 12.5,69 C 8.9,69 6,66.1 6,62.5 6,58.9 8.9,56 12.5,56 c 3.6,0 6.5,2.9 6.5,6.5 0,3.6 -2.9,6.5 -6.5,6.5 z m 25,25 C 33.9,94 31,91.1 31,87.5 31,83.9 33.9,81 37.5,81 c 3.6,0 6.5,2.9 6.5,6.5 0,3.6 -2.9,6.5 -6.5,6.5 z"
       id="path4603"
       style="fill:#18c953;fill-opacity:1"
       inkscape:connector-curvature="0" /><circle
       cx="62.5"
       cy="87.5"
       r="7.5"
       id="circle4605"
       style="fill:#18c953;fill-opacity:1" /><circle
       cx="87.5"
       cy="87.5"
       r="7.5"
       id="circle4607"
       style="fill:#18c953;fill-opacity:1" /><path
       d="M 68.1,32.6 82.5,18.2 82.1,17.8 c 1.4,1.4 3.2,2.2 5.3,2.2 4.1,0 7.5,-3.4 7.5,-7.5 C 94.9,8.4 91.6,5 87.5,5 83.4,5 80,8.4 80,12.5 c 0,2.1 0.8,3.9 2.2,5.3 L 81.8,17.4 67.4,31.9 67.5,32 c -1.3,-1.2 -3.1,-1.9 -5,-1.9 -4.1,0 -7.5,3.4 -7.5,7.5 0,4.1 3.4,7.5 7.5,7.5 4.1,0 7.5,-3.4 7.5,-7.5 0,-2 -0.7,-3.8 -1.9,-5 z M 87.5,6 C 91.1,6 94,8.9 94,12.5 94,16.1 91.1,19 87.5,19 83.9,19 81,16.1 81,12.5 81,8.9 83.9,6 87.5,6 Z m -25,38 C 58.9,44 56,41.1 56,37.5 56,33.9 58.9,31 62.5,31 c 3.6,0 6.5,2.9 6.5,6.5 0,3.6 -2.9,6.5 -6.5,6.5 z"
       id="path4609"
       style="fill:#18c953;fill-opacity:1"
       inkscape:connector-curvature="0" /><polygon
       points="70,38 80,38 80,37.5 80,37 70,37 70,37.5 "
       id="polygon4611"
       style="fill:#18c953;fill-opacity:1" /><polygon
       points="45,38 55,38 55,37.5 55,37 45,37 45,37.5 "
       id="polygon4613"
       style="fill:#18c953;fill-opacity:1" /><rect
       x="62"
       y="45"
       width="1"
       height="10"
       id="rect4615"
       style="fill:#18c953;fill-opacity:1" /></g></svg>